<svg width="75" height="74" viewBox="0 0 75 74" fill="none" xmlns="http://www.w3.org/2000/svg">
<g clip-path="url(#clip0_126_12)">
<path d="M37.5 -1C27.484 -1 18.0668 2.90117 10.9852 9.98516C3.90117 17.0668 0 26.484 0 36.5C0 46.516 3.90117 55.9332 10.984 63.0148C18.0668 70.0988 27.484 74 37.5 74C47.516 74 56.9332 70.0988 64.016 63.0148C71.0988 55.9332 75 46.516 75 36.5C75 26.484 71.0988 17.0668 64.016 9.98516C56.9332 2.90117 47.516 -1 37.5 -1ZM60.7008 59.7008C54.5039 65.8988 46.2645 69.3125 37.5 69.3125C28.7355 69.3125 20.4961 65.8988 14.2992 59.7008C8.10117 53.5039 4.6875 45.2645 4.6875 36.5C4.6875 27.7355 8.10117 19.4961 14.2992 13.2992C20.4961 7.10117 28.7355 3.6875 37.5 3.6875C46.2645 3.6875 54.5039 7.10117 60.702 13.2992C66.9 19.4961 70.3125 27.7355 70.3125 36.5C70.3125 45.2645 66.9 53.5039 60.7008 59.7008Z" fill="#2FB3FD"/>
<path d="M54.8297 41.3773L39.8438 34.9555V10.7188C39.8438 9.425 38.7937 8.375 37.5 8.375C36.2063 8.375 35.1562 9.425 35.1562 10.7188V36.5C35.1562 37.4375 35.7152 38.2848 36.5766 38.6539L52.9828 45.6852C53.284 45.8141 53.5969 45.8762 53.9051 45.8762C54.8145 45.875 55.6793 45.343 56.0602 44.4547C56.5699 43.2641 56.0191 41.8871 54.8297 41.3773Z" fill="#2FB3FD"/>
<path d="M14.0625 34.1562H11.7188C10.425 34.1562 9.375 35.2063 9.375 36.5C9.375 37.7937 10.425 38.8438 11.7188 38.8438H14.0625C15.3562 38.8438 16.4062 37.7937 16.4062 36.5C16.4062 35.2063 15.3562 34.1562 14.0625 34.1562Z" fill="#2FB3FD"/>
<path d="M58.5938 36.5C58.5938 37.7937 59.6438 38.8438 60.9375 38.8438H63.2812C64.575 38.8438 65.625 37.7937 65.625 36.5C65.625 35.2063 64.575 34.1562 63.2812 34.1562H60.9375C59.6438 34.1562 58.5938 35.2063 58.5938 36.5Z" fill="#2FB3FD"/>
<path d="M37.5 57.5938C36.2063 57.5938 35.1562 58.6438 35.1562 59.9375V62.2812C35.1562 63.575 36.2063 64.625 37.5 64.625C38.7937 64.625 39.8438 63.575 39.8438 62.2812V59.9375C39.8438 58.6438 38.7937 57.5938 37.5 57.5938Z" fill="#2FB3FD"/>
</g>
<defs>
<clipPath id="clip0_126_12">
<rect width="75" height="75" fill="white" transform="translate(0 -1)"/>
</clipPath>
</defs>
</svg>
