<svg width="75" height="75" viewBox="0 0 75 75" fill="none" xmlns="http://www.w3.org/2000/svg">
<g clip-path="url(#clip0_124_36)">
<path d="M24.5778 29.268C27.5192 29.268 29.9043 26.8841 29.9043 23.9427C29.9043 20.999 27.5192 18.6161 24.5778 18.6161C21.6355 18.6161 19.2504 20.999 19.2504 23.9427C19.2504 26.8841 21.6355 29.268 24.5778 29.268Z" fill="#2FB3FD"/>
<path d="M45.978 19.1252C43.0355 19.1252 40.6503 21.5081 40.6503 24.4519C40.6503 27.3933 43.0355 29.7771 45.978 29.7771C48.9194 29.7771 51.3045 27.3933 51.3045 24.4519C51.3045 21.508 48.9194 19.1252 45.978 19.1252Z" fill="#2FB3FD"/>
<path d="M24.5777 16.7592C27.7186 16.7592 30.3661 18.7989 31.3406 21.613C31.939 20.8961 32.7744 20.426 33.7028 20.2411C32.6171 18.9825 31.9365 17.365 31.9365 15.5769C31.9365 14.2085 32.3416 12.9404 33.0088 11.8511C32.6485 11.6094 32.1009 11.4679 31.8724 11.4679H24.7472C23.7399 11.4679 22.884 11.7507 22.4696 12.66L19.719 18.6852C21.1093 17.3999 22.9892 16.7592 24.5777 16.7592Z" fill="#2FB3FD"/>
<path d="M28.3099 10.5707C30.8811 10.5707 32.9678 8.48532 32.9678 5.91415C32.9678 3.33905 30.8811 1.25488 28.3099 1.25488C25.7372 1.25488 23.6506 3.33905 23.6506 5.91415C23.6506 8.48532 25.7372 10.5707 28.3099 10.5707Z" fill="#2FB3FD"/>
<path d="M55.103 20.7501C54.0174 19.4916 53.3366 17.8738 53.3366 16.086C53.3366 16.0328 53.3513 15.9834 53.3526 15.9301H46.9091C46.8861 15.9301 46.3576 16.0292 46.2548 16.0618C46.2272 16.4778 46.1753 16.8851 46.0782 17.278C49.1743 17.3227 51.7772 19.3392 52.7406 22.1221C53.3391 21.4052 54.1744 20.9349 55.103 20.7501Z" fill="#2FB3FD"/>
<path d="M50.5949 15.0004C51.8051 15.0004 52.8967 14.5399 53.743 13.8048C54.0791 12.811 54.6086 11.9115 55.3146 11.1657C55.3798 10.8477 55.4161 10.5186 55.4161 10.1816C55.4161 7.51825 53.2582 5.36292 50.5949 5.36292C47.933 5.36292 45.7751 7.51825 45.7751 10.1816C45.7751 12.8436 47.9328 15.0004 50.5949 15.0004Z" fill="#2FB3FD"/>
<path d="M35.0469 21.9285C33.8706 21.9285 32.9084 22.2635 32.4431 23.291L31.6523 25.0245C31.4479 26.3594 30.8776 27.5597 30.0433 28.5474L30.0155 28.6091C31.1205 28.8352 32.0683 29.4952 32.6632 30.4501C32.7552 30.5978 32.8709 30.7259 32.9447 30.8867L35.3941 36.2519L37.6111 31.3946C38.1587 30.188 39.2747 29.3708 40.5597 29.1158C39.474 27.8573 38.7934 26.2396 38.7934 24.4518C38.7934 23.5608 38.9771 22.717 39.2747 21.9286C34.3726 21.9285 36.0529 21.9285 35.0469 21.9285Z" fill="#2FB3FD"/>
<path d="M35.9367 53.2419C35.0374 53.7846 33.9409 53.9941 32.8989 53.7801V63.2433C33.3242 64.1998 34.2745 64.8708 35.3891 64.8708C36.3598 64.8708 37.1722 64.3365 37.657 63.5735V53.2697C37.0865 53.3859 36.5012 53.3666 35.9367 53.2419Z" fill="#2FB3FD"/>
<path d="M39.12 20.9022C39.3556 20.9022 39.5805 20.8623 39.8077 20.8334C40.7397 19.2497 42.2497 18.0686 44.0558 17.5621C44.3035 16.9477 44.4474 16.2805 44.4474 15.5768C44.4474 12.6331 42.0622 10.2504 39.1199 10.2504C36.1785 10.2504 33.7932 12.6331 33.7932 15.5768C33.7934 18.5184 36.1786 20.9022 39.12 20.9022Z" fill="#2FB3FD"/>
<path d="M8.503 50.6887C8.11606 49.6539 8.15583 48.531 8.61536 47.5264L11.5048 41.1953L16.2108 30.8855C16.7283 29.7455 17.751 28.9406 18.9455 28.6369V28.3482C18.0835 27.2493 17.543 25.9036 17.443 24.4274C17.3439 24.396 16.813 24.2957 16.7887 24.2957H9.41561C8.36871 24.2957 7.48735 24.5906 7.05922 25.5275L0.186697 40.586C-0.286253 41.6218 0.169654 42.8444 1.20582 43.3168C2.25129 43.7944 3.46768 43.3254 3.93668 42.2979L7.26011 35.0165C7.26011 35.61 7.25285 44.6178 7.25285 60.6793C7.25285 62.0455 8.36019 63.1528 9.72633 63.1528C11.0922 63.1528 12.1996 62.0455 12.1996 60.6793V53.352C11.6751 53.3389 11.1504 53.2288 10.6572 53.0026C9.655 52.5456 8.88853 51.7236 8.503 50.6887Z" fill="#2FB3FD"/>
<path d="M14.0046 52.9891V60.6791C14.0046 61.9665 14.9998 62.9906 16.2569 63.1079V50.6984L16.1371 50.9592C15.7105 51.8977 14.9221 52.5941 14.0046 52.9891Z" fill="#2FB3FD"/>
<path d="M13.1029 23.3661C15.765 23.3661 17.9227 21.2094 17.9227 18.5475C17.9227 15.884 15.765 13.7286 13.1029 13.7286C10.4396 13.7286 8.28174 15.884 8.28174 18.5475C8.28174 21.2094 10.4396 23.3661 13.1029 23.3661Z" fill="#2FB3FD"/>
<path d="M30.0155 48.0352L31.0346 45.8024V42.1443L31.8699 43.9733L34.3726 38.4885L31.2546 31.6569C30.7845 30.6232 29.8053 30.2942 28.6506 30.2942C10.8133 30.2942 32.9496 30.2942 20.5025 30.2942C19.3446 30.2942 18.3699 30.6197 17.8998 31.6569L10.3042 48.2975C9.78188 49.441 10.2861 50.7926 11.431 51.3151C12.5673 51.836 13.9237 51.3402 14.4483 50.1882L18.1209 42.1418C18.1209 48.2189 18.1137 47.9759 18.1137 70.5031C18.1137 72.0129 19.337 73.2363 20.847 73.2363C22.3569 73.2363 23.5804 72.0129 23.5804 70.5031V54.2104H25.5753V70.5031C25.5753 72.0129 26.7986 73.2363 28.3085 73.2363C29.8182 73.2363 31.0417 72.0129 31.0417 70.5031V52.8299C30.5423 52.3873 30.1424 51.8409 29.9028 51.1977C29.5017 50.1218 29.5997 48.9466 30.0155 48.0352Z" fill="#2FB3FD"/>
<path d="M74.7939 40.441L67.1981 23.8001C66.723 22.7592 65.7401 22.4376 64.5952 22.4376C46.8267 22.4376 68.8759 22.4376 56.4472 22.4376C55.2817 22.4376 54.3134 22.7652 53.843 23.8001L53.0526 25.5338C52.8482 26.8684 52.2776 28.0699 51.4435 29.0564L51.4158 29.1181C52.7707 29.395 53.8733 30.3668 54.345 31.3959L61.9395 48.0353C62.3987 49.0397 62.4386 50.1629 62.0519 51.1978C61.9212 51.5495 61.7315 51.865 61.5174 52.1626V62.6462C61.5174 64.1561 62.7408 65.3796 64.2509 65.3796C65.7607 65.3796 66.9841 64.1561 66.9841 62.6462C66.9841 47.5821 66.9769 39.1556 66.9769 34.2852L70.6495 42.3316C71.1741 43.4838 72.5306 43.9793 73.667 43.4582C74.812 42.9361 75.3161 41.5844 74.7939 40.441Z" fill="#2FB3FD"/>
<path d="M54.4164 51.4674L54.2966 51.205L54.2992 51.3634V63.7524C54.7248 64.7086 55.6751 65.3797 56.7897 65.3797C58.2993 65.3797 59.5229 64.1562 59.5229 62.6463V53.6376C57.5812 54.295 55.2795 53.3581 54.4164 51.4674Z" fill="#2FB3FD"/>
<path d="M60.5201 21.4114C63.4626 21.4114 65.848 19.0274 65.848 16.086C65.848 13.1423 63.4627 10.7595 60.5201 10.7595C57.5789 10.7595 55.1936 13.1423 55.1936 16.086C55.1936 19.0274 57.5789 21.4114 60.5201 21.4114Z" fill="#2FB3FD"/>
<path d="M52.6549 32.1656C52.1834 31.1332 51.2067 30.8032 50.051 30.8032C32.2133 30.8032 54.3498 30.8032 41.903 30.8032C40.7389 30.8032 39.7704 31.1332 39.3 32.1656L31.7044 48.8064C31.1822 49.95 31.6864 51.3015 32.8313 51.8237C33.9677 52.3449 35.3242 51.8492 35.8487 50.6971L39.5214 42.6506V51.3272C39.5214 51.3402 39.514 51.351 39.514 51.3634V71.0118C39.514 72.5217 40.7376 73.7452 42.2474 73.7452C43.7574 73.7452 44.9808 72.5217 44.9808 71.0118V54.7193H46.9756V71.0118C46.9756 72.5217 48.1991 73.7452 49.7088 73.7452C51.2189 73.7452 52.4422 72.5217 52.4422 71.0118V51.3634C52.4422 51.3512 52.4351 51.3402 52.4351 51.3272V42.6541L56.1065 50.6973C56.4886 51.536 57.3155 52.0304 58.1798 52.0304C58.4965 52.0304 58.8181 51.9641 59.1241 51.8238C60.269 51.3016 60.773 49.9502 60.2505 48.8066L52.6549 32.1656Z" fill="#2FB3FD"/>
</g>
<defs>
<clipPath id="clip0_124_36">
<rect width="75" height="75" fill="white"/>
</clipPath>
</defs>
</svg>
