<svg width="75" height="75" viewBox="0 0 75 75" fill="none" xmlns="http://www.w3.org/2000/svg">
<g clip-path="url(#clip0_126_3)">
<path d="M75 37.5009C75 16.7886 58.2105 0.000488281 37.5004 0.000488281C16.7895 0.000488281 0 16.7885 0 37.5009C0 58.2104 16.7895 74.9996 37.5006 74.9996C58.2105 74.9996 75 58.2104 75 37.5009Z" fill="#2FB3FD"/>
<path d="M59.3428 34.1744H25.2559C24.421 34.1744 23.7443 34.8515 23.7443 35.6861V39.3139C23.7443 40.1488 24.421 40.8255 25.2559 40.8255H59.3428C60.1777 40.8255 60.8544 40.1488 60.8544 39.3139V35.6861C60.8544 34.8515 60.1777 34.1744 59.3428 34.1744Z" fill="white"/>
<path d="M19.285 34.1744H15.6571C14.8223 34.1744 14.1455 34.8515 14.1455 35.6861V39.3139C14.1455 40.1488 14.8223 40.8255 15.6571 40.8255H19.285C20.1199 40.8255 20.7966 40.1488 20.7966 39.3139V35.6861C20.7966 34.8515 20.1199 34.1744 19.285 34.1744Z" fill="white"/>
<path d="M59.3428 23.7443H25.2559C24.421 23.7443 23.7443 24.4213 23.7443 25.2559V28.8838C23.7443 29.7186 24.421 30.3954 25.2559 30.3954H59.3428C60.1777 30.3954 60.8544 29.7186 60.8544 28.8838V25.2559C60.8544 24.4213 60.1777 23.7443 59.3428 23.7443Z" fill="white"/>
<path d="M19.285 23.7443H15.6571C14.8223 23.7443 14.1455 24.4213 14.1455 25.2559V28.8838C14.1455 29.7186 14.8223 30.3954 15.6571 30.3954H19.285C20.1199 30.3954 20.7966 29.7186 20.7966 28.8838V25.2559C20.7966 24.4213 20.1199 23.7443 19.285 23.7443Z" fill="white"/>
<path d="M59.3428 44.6045H25.2559C24.421 44.6045 23.7443 45.2815 23.7443 46.1161V49.744C23.7443 50.5788 24.421 51.2556 25.2559 51.2556H59.3428C60.1777 51.2556 60.8544 50.5788 60.8544 49.744V46.1161C60.8544 45.2815 60.1777 44.6045 59.3428 44.6045Z" fill="white"/>
<path d="M19.285 44.6045H15.6571C14.8223 44.6045 14.1455 45.2815 14.1455 46.1161V49.744C14.1455 50.5788 14.8223 51.2556 15.6571 51.2556H19.285C20.1199 51.2556 20.7966 50.5788 20.7966 49.744V46.1161C20.7966 45.2815 20.1199 44.6045 19.285 44.6045Z" fill="white"/>
</g>
<defs>
<clipPath id="clip0_126_3">
<rect width="75" height="75" fill="white"/>
</clipPath>
</defs>
</svg>
