<svg width="76" height="76" viewBox="0 0 76 76" fill="none" xmlns="http://www.w3.org/2000/svg">
<g clip-path="url(#clip0_99_17)">
<rect width="76" height="76" fill="#EBEBEB"/>
<circle cx="38" cy="38" r="38" fill="#2FB3FD"/>
<circle cx="38" cy="38" r="35" fill="white"/>
<path d="M15.8 65.1333V67.6H20.7333V65.1333H15.8ZM55.2667 65.1333V67.6H60.2V65.1333H55.2667ZM20.7333 65.1333V62.6662H15.8V65.1333H20.7333ZM33.0667 50.3333H42.9333V45.4H33.0667V50.3333ZM55.2667 62.6662V65.1333H60.2V62.6662H55.2667ZM42.9333 50.3333C49.745 50.3333 55.2667 55.8547 55.2667 62.6662H60.2C60.2 53.1295 52.4695 45.4 42.9333 45.4V50.3333ZM20.7333 62.6662C20.7333 55.8547 26.255 50.3333 33.0667 50.3333V45.4C23.5307 45.4 15.8 53.1295 15.8 62.6662H20.7333ZM38 15.8C31.1885 15.8 25.6667 21.3218 25.6667 28.1333H30.6C30.6 24.0464 33.9131 20.7333 38 20.7333V15.8ZM50.3333 28.1333C50.3333 21.3218 44.8115 15.8 38 15.8V20.7333C42.0869 20.7333 45.4 24.0464 45.4 28.1333H50.3333ZM38 40.4667C44.8115 40.4667 50.3333 34.9448 50.3333 28.1333H45.4C45.4 32.2203 42.0869 35.5333 38 35.5333V40.4667ZM38 35.5333C33.9131 35.5333 30.6 32.2203 30.6 28.1333H25.6667C25.6667 34.9448 31.1885 40.4667 38 40.4667V35.5333ZM38 70.0667C20.2901 70.0667 5.93333 55.7102 5.93333 38H1C1 58.4344 17.5654 75 38 75V70.0667ZM70.0667 38C70.0667 55.7102 55.7102 70.0667 38 70.0667V75C58.4344 75 75 58.4344 75 38H70.0667ZM38 5.93333C55.7102 5.93333 70.0667 20.2901 70.0667 38H75C75 17.5654 58.4344 1 38 1V5.93333ZM38 1C17.5654 1 1 17.5654 1 38H5.93333C5.93333 20.2901 20.2901 5.93333 38 5.93333V1Z" fill="black"/>
</g>
<defs>
<clipPath id="clip0_99_17">
<rect width="76" height="76" fill="white"/>
</clipPath>
</defs>
</svg>
