<svg width="75" height="74" viewBox="0 0 75 74" fill="none" xmlns="http://www.w3.org/2000/svg">
<g clip-path="url(#clip0_126_21)">
<path d="M74.2614 0.505044C73.7364 -0.0247545 73.0053 -0.298239 72.2629 -0.243946L60.5566 0.612114C59.1515 0.714892 58.0957 1.93711 58.1982 3.34242C58.3008 4.74772 59.5237 5.79873 60.9285 5.7005L65.7927 5.34469L48.6563 22.5033L28.727 5.62626C27.7141 4.76818 26.2129 4.83055 25.2745 5.76893L0.74722 30.2965C-0.248992 31.2927 -0.248992 32.9081 0.74722 33.9043C1.24545 34.4023 1.89823 34.6515 2.55126 34.6515C3.20429 34.6515 3.85682 34.4025 4.35505 33.9043L27.2217 11.0374L47.1523 27.9154C48.1654 28.774 49.6677 28.7109 50.6058 27.7715L69.3328 9.0202L68.946 13.6917C68.8295 15.0957 69.8737 16.328 71.2778 16.4444C71.3495 16.4505 71.4205 16.4533 71.4912 16.4533C72.8048 16.453 73.9205 15.4449 74.0308 14.1126L74.9914 2.5106C75.0528 1.76767 74.7864 1.03509 74.2614 0.505044Z" fill="#2FB3FD"/>
<path d="M22.7543 29.7434C21.8013 29.349 20.7038 29.5672 19.974 30.2965L9.37399 40.8967C8.89571 41.3753 8.62677 42.024 8.62677 42.7008V70.7C8.62677 72.1089 9.76894 73.251 11.1778 73.251H21.7778C23.1866 73.251 24.3288 72.1089 24.3288 70.7V32.1003C24.329 31.0684 23.7073 30.1384 22.7543 29.7434Z" fill="#2FB3FD"/>
<path d="M34.1826 30.2964C33.453 29.5669 32.3561 29.3489 31.4023 29.7434C30.4492 30.1383 29.8275 31.0684 29.8275 32.1004V70.6999C29.8275 72.1088 30.9697 73.251 32.3785 73.251H42.9788C44.3876 73.251 45.5298 72.1088 45.5298 70.6999V42.7007C45.5298 42.0242 45.2611 41.3754 44.7826 40.8969L34.1826 30.2964Z" fill="#2FB3FD"/>
<path d="M65.1555 29.7434C64.202 29.349 63.1048 29.5672 62.3752 30.2965L51.775 40.897C51.2967 41.3755 51.0278 42.0243 51.0278 42.7008V70.6998C51.0278 72.1086 52.1699 73.2508 53.5788 73.2508H64.179C65.5879 73.2508 66.73 72.1086 66.73 70.6998V32.1003C66.7303 31.0684 66.1088 30.1384 65.1555 29.7434Z" fill="#2FB3FD"/>
</g>
<defs>
<clipPath id="clip0_126_21">
<rect width="75" height="75" fill="white" transform="translate(0 -1)"/>
</clipPath>
</defs>
</svg>
